<svg id="Calque_1" data-name="Calque 1" xmlns="http://www.w3.org/2000/svg" viewBox="0 0 338.96 176.31"><defs><style>.cls-1,.cls-2{fill:#d89400;}.cls-2{font-size:140.04px;font-family:Times-Roman, Times;}</style></defs><title>logo-aria20-black</title><path class="cls-1" d="M148.83,24.32a8.25,8.25,0,0,1,2.5,6,8.46,8.46,0,0,1-2.5,6.09,8.12,8.12,0,0,1-6,2.57,8.36,8.36,0,0,1-6.16-2.5,8.21,8.21,0,0,1-2.5-6,8.43,8.43,0,0,1,2.5-6.09,8.58,8.58,0,0,1,12.18-.07Z" transform="translate(-18.97)"/><path class="cls-1" d="M24,66.22l.54-8.79a43.38,43.38,0,0,1,9.54-6,29.92,29.92,0,0,1,12.37-2.3,35.67,35.67,0,0,1,9.68,1.35,20.49,20.49,0,0,1,8.45,4.74,17.2,17.2,0,0,1,4.12,6,24.31,24.31,0,0,1,1.42,9.13c0,.81-.29,35.21.21,37.19s1.91,3,4.26,3a8,8,0,0,0,2.93-.5l.59,3.61a42.66,42.66,0,0,1-5.15,2.23,13.89,13.89,0,0,1-4.59.75A10,10,0,0,1,62,114.44a11.55,11.55,0,0,1-3.92-6.56,38.22,38.22,0,0,1-8.8,6.9,23.64,23.64,0,0,1-11.63,2.57A20,20,0,0,1,29,115.66a16.39,16.39,0,0,1-5.81-4.39A17.81,17.81,0,0,1,20,105.45a19.43,19.43,0,0,1-1-6.09,17.92,17.92,0,0,1,1.82-8.52,14.64,14.64,0,0,1,4.94-5.41,26.06,26.06,0,0,1,6.63-3.11q3.51-1.08,9.06-2.3l11.77-2.57a6.53,6.53,0,0,0,3.92-2.16A7.34,7.34,0,0,0,58.19,71q0-6.76-4.19-10.75a15.26,15.26,0,0,0-11-4,19.41,19.41,0,0,0-6.69,1,12.58,12.58,0,0,0-4.47,2.64,16.13,16.13,0,0,0-2.63,3.18,26.71,26.71,0,0,0-1.63,3v.13Zm34,15.7a85.46,85.46,0,0,0-13.59,2.9,26.65,26.65,0,0,0-7.85,3.72A10.24,10.24,0,0,0,33,92.87a15,15,0,0,0-.88,5.41q0,6,3.58,8.66a12.86,12.86,0,0,0,7.91,2.7,15.08,15.08,0,0,0,9.88-3.72,11.46,11.46,0,0,0,4.46-9.13Z" transform="translate(-18.97)"/><path class="cls-1" d="M123.93,62.57a13,13,0,0,0-3.11-1.35,15.42,15.42,0,0,0-3.92-.41,13.65,13.65,0,0,0-8.46,2.51,17,17,0,0,0-4.8,5.2,20.85,20.85,0,0,0-.93,2.5v46.36H88.22V49.17H102.7L102.77,62c.72-1.72.17-.43,1.21-2.1a25.67,25.67,0,0,1,4.19-5,21.46,21.46,0,0,1,6.43-4.12,22,22,0,0,1,8.79-1.63c.27,0,2.16.14,2.43.14a60,60,0,0,0-.94,12.57Z" transform="translate(-18.97)"/><path class="cls-1" d="M135.84,49.2H149.5l.14,68.18H136Z" transform="translate(-18.97)"/><path class="cls-1" d="M164.64,66.22l.54-8.79a43.38,43.38,0,0,1,9.54-6,29.94,29.94,0,0,1,12.38-2.3,35.6,35.6,0,0,1,9.67,1.35,20.43,20.43,0,0,1,8.45,4.74,17.36,17.36,0,0,1,4.13,6,24.52,24.52,0,0,1,1.42,9.13c0,.81-.3,35.21.2,37.19s1.91,3,4.26,3a8.54,8.54,0,0,0,3.38-.68l.14,3.79a43.3,43.3,0,0,1-5.14,2.23,14,14,0,0,1-4.6.75,10,10,0,0,1-6.36-2.24,11.55,11.55,0,0,1-3.92-6.56,38.39,38.39,0,0,1-8.79,6.9,23.71,23.71,0,0,1-11.64,2.57,19.9,19.9,0,0,1-8.58-1.69,16.43,16.43,0,0,1-5.82-4.39,17.81,17.81,0,0,1-3.25-5.82,19.72,19.72,0,0,1-1-6.09,17.92,17.92,0,0,1,1.82-8.52,14.72,14.72,0,0,1,4.94-5.41A26.06,26.06,0,0,1,173,82.32q3.51-1.08,9.06-2.3l11.77-2.57a6.53,6.53,0,0,0,3.92-2.16A7.34,7.34,0,0,0,198.86,71q0-6.76-4.19-10.75a15.26,15.26,0,0,0-11-4,19.41,19.41,0,0,0-6.69,1,12.45,12.45,0,0,0-4.46,2.64,15.86,15.86,0,0,0-2.64,3.18,26.58,26.58,0,0,0-1.62,3v.13Zm34,15.7A85.46,85.46,0,0,0,185,84.82a26.77,26.77,0,0,0-7.85,3.72,10.32,10.32,0,0,0-3.51,4.33,15,15,0,0,0-.88,5.41q0,6,3.58,8.66a12.86,12.86,0,0,0,7.91,2.7,15.08,15.08,0,0,0,9.88-3.72,11.46,11.46,0,0,0,4.46-9.13Z" transform="translate(-18.97)"/><text class="cls-2" transform="translate(206.03 116.34) scale(0.95 1)">20</text></svg>